<?xml version="1.0"?>
<!DOCTYPE svg PUBLIC "-//W3C//DTD SVG 1.1//EN" "http://www.w3.org/Graphics/SVG/1.1/DTD/svg11.dtd">
<svg xmlns="http://www.w3.org/2000/svg"
     width="400" height="400">

<path d="M 195 200 Q 197 197 200 200" stroke="red" stroke-width="2" fill="none" /><path d="M 195 208 Q 192 203 195 200" stroke="red" stroke-width="2" fill="none" /><path d="M 207 213 Q 198 214 195 208" stroke="red" stroke-width="2" fill="none" /><path d="M 219 201 Q 215 211 207 213" stroke="red" stroke-width="2" fill="none" /><path d="M 214 179 Q 223 190 219 201" stroke="red" stroke-width="2" fill="none" /><path d="M 189 171 Q 205 169 214 179" stroke="red" stroke-width="2" fill="none" /><path d="M 165 192 Q 173 175 189 171" stroke="red" stroke-width="2" fill="none" /><path d="M 171 228 Q 159 210 165 192" stroke="red" stroke-width="2" fill="none" /><path d="M 209 243 Q 185 245 171 228" stroke="red" stroke-width="2" fill="none" /><path d="M 246 217 Q 234 240 209 243" stroke="red" stroke-width="2" fill="none" /><path d="M 243 166 Q 258 192 246 217" stroke="red" stroke-width="2" fill="none" /><path d="M 195 140 Q 227 141 243 166" stroke="red" stroke-width="2" fill="none" /><path d="M 142 169 Q 162 140 195 140" stroke="red" stroke-width="2" fill="none" /><path d="M 138 233 Q 124 199 142 169" stroke="red" stroke-width="2" fill="none" /><path d="M 195 274 Q 155 268 138 233" stroke="red" stroke-width="2" fill="none" /><path d="M 264 247 Q 235 279 195 274" stroke="red" stroke-width="2" fill="none" /><path d="M 279 169 Q 291 213 264 247" stroke="red" stroke-width="2" fill="none" /><path d="M 218 111 Q 264 126 279 169" stroke="red" stroke-width="2" fill="none" /><path d="M 132 133 Q 171 100 218 111" stroke="red" stroke-width="2" fill="none" /><path d="M 102 221 Q 95 168 132 133" stroke="red" stroke-width="2" fill="none" /><path d="M 164 298 Q 112 275 102 221" stroke="red" stroke-width="2" fill="none" /><path d="M 266 287 Q 216 319 164 298" stroke="red" stroke-width="2" fill="none" /><path d="M 314 190 Q 314 252 266 287" stroke="red" stroke-width="2" fill="none" /><path d="M 256 94 Q 310 128 314 190" stroke="red" stroke-width="2" fill="none" /><path d="M 139 90 Q 199 62 256 94" stroke="red" stroke-width="2" fill="none" /><path d="M 70 191 Q 79 122 139 90" stroke="red" stroke-width="2" fill="none" /><path d="M 120 308 Q 64 261 70 191" stroke="red" stroke-width="2" fill="none" /><path d="M 250 330 Q 178 352 120 308" stroke="red" stroke-width="2" fill="none" /><path d="M 342 229 Q 321 304 250 330" stroke="red" stroke-width="2" fill="none" /><path d="M 304 92 Q 358 152 342 229" stroke="red" stroke-width="2" fill="none" /><path d="M 165 48 Q 247 35 304 92" stroke="red" stroke-width="2" fill="none" /><path d="M 49 145 Q 83 66 165 48" stroke="red" stroke-width="2" fill="none" /><path d="M 69 300 Q 19 226 49 145" stroke="red" stroke-width="2" fill="none" /><path d="M 214 369 Q 122 371 69 300" stroke="red" stroke-width="2" fill="none" /><path d="M 354 281 Q 305 362 214 369" stroke="red" stroke-width="2" fill="none" /><path d="M 356 111 Q 399 198 354 281" stroke="red" stroke-width="2" fill="none" /><path d="M 210 15 Q 309 26 356 111" stroke="red" stroke-width="2" fill="none" /><path d="M 46 88 Q 110 9 210 15" stroke="red" stroke-width="2" fill="none" /><path d="M 18 270 Q -14 171 46 88" stroke="red" stroke-width="2" fill="none" /><path d="M 160 396 Q 56 368 18 270" stroke="red" stroke-width="2" fill="none" /><path d="M 347 342 Q 266 417 160 396" stroke="red" stroke-width="2" fill="none" /><path d="M 404 152 Q 424 263 347 342" stroke="red" stroke-width="2" fill="none" /><path d="M 271 -2 Q 378 41 404 152" stroke="red" stroke-width="2" fill="none" /><path d="M 65 26 Q 162 -41 271 -2" stroke="red" stroke-width="2" fill="none" /><path d="M -24 219 Q -28 99 65 26" stroke="red" stroke-width="2" fill="none" /><path d="M 93 403 Q -13 340 -24 219" stroke="red" stroke-width="2" fill="none" /><path d="M 316 404 Q 203 460 93 403" stroke="red" stroke-width="2" fill="none" /><path d="M 439 212 Q 426 341 316 404" stroke="red" stroke-width="2" fill="none" /><path d="M 343 1 Q 445 83 439 212" stroke="red" stroke-width="2" fill="none" /><path d="M 108 -32 Q 235 -75 343 1" stroke="red" stroke-width="2" fill="none" /><path d="M -50 150 Q -16 17 108 -32" stroke="red" stroke-width="2" fill="none" /><path d="M 19 387 Q -76 285 -50 150" stroke="red" stroke-width="2" fill="none" /><path d="M 261 457 Q 121 483 19 387" stroke="red" stroke-width="2" fill="none" /><path d="M 454 289 Q 400 423 261 457" stroke="red" stroke-width="2" fill="none" /><path d="M 416 30 Q 501 151 454 289" stroke="red" stroke-width="2" fill="none" /><path d="M 174 -78 Q 324 -85 416 30" stroke="red" stroke-width="2" fill="none" /><path d="M -53 68 Q 23 -63 174 -78" stroke="red" stroke-width="2" fill="none" /><path d="M -51 344 Q -122 205 -53 68" stroke="red" stroke-width="2" fill="none" /><path d="M 185 494 Q 27 479 -51 344" stroke="red" stroke-width="2" fill="none" /><path d="M 444 374 Q 344 501 185 494" stroke="red" stroke-width="2" fill="none" />
</svg>
